<svg width="24" height="127" viewBox="0 0 24 127" fill="none" xmlns="http://www.w3.org/2000/svg">
<circle cx="12" cy="12.3047" r="12" fill="#43E1A9"/>
<circle cx="12" cy="63.3047" r="12" fill="#43E1A9"/>
<circle cx="12" cy="114.305" r="12" fill="#43E1A9"/>
<path d="M11 57.3047C11 57.857 11.4477 58.3047 12 58.3047C12.5523 58.3047 13 57.857 13 57.3047H12H11ZM12 17.8047H11V20.2734H12H13V17.8047H12ZM12 25.2109H11V30.1484H12H13V25.2109H12ZM12 35.0859H11V40.0234H12H13V35.0859H12ZM12 44.9609H11V49.8984H12H13V44.9609H12ZM12 54.8359H11V57.3047H12H13V54.8359H12Z" fill="#43E1A9"/>
<path d="M11 108.305C11 108.857 11.4477 109.305 12 109.305C12.5523 109.305 13 108.857 13 108.305H12H11ZM12 68.8047H11V71.2734H12H13V68.8047H12ZM12 76.2109H11V81.1484H12H13V76.2109H12ZM12 86.0859H11V91.0234H12H13V86.0859H12ZM12 95.9609H11V100.898H12H13V95.9609H12ZM12 105.836H11V108.305H12H13V105.836H12Z" fill="#43E1A9"/>
<path d="M9.33937 7.81607C9.33937 7.54324 9.47578 7.40683 9.74861 7.40683H13.0525C13.3253 7.40683 13.4617 7.54324 13.4617 7.81607C13.4617 9.6593 13.465 11.5059 13.4717 13.3558C13.4783 15.199 13.4817 17.0456 13.4817 18.8954C13.4817 19.1683 13.3452 19.3047 13.0724 19.3047H11.3856C11.1127 19.3047 10.9763 19.1683 10.9763 18.8954C10.9763 17.4448 10.9796 15.9942 10.9863 14.5435C10.993 13.0929 10.9963 11.6456 10.9963 10.2016C10.9963 10.0885 10.9131 10.0353 10.7467 10.0419C10.5804 10.0486 10.3874 10.0652 10.1678 10.0918C9.95489 10.1118 9.76524 10.0985 9.59889 10.0519C9.43253 10.0053 9.34935 9.87557 9.34935 9.66263C9.34935 9.34988 9.34602 9.04046 9.33937 8.73436C9.33937 8.42826 9.33937 8.12216 9.33937 7.81607Z" fill="white"/>
<path d="M8.71681 70.3047C8.64361 70.3047 8.53049 70.2947 8.37744 70.2747C8.23104 70.2481 8.15785 70.1783 8.15785 70.0651C8.15785 69.9853 8.19112 69.9054 8.25766 69.8256C8.3242 69.7457 8.38076 69.6825 8.42734 69.6359C8.9863 69.0637 9.5985 68.4581 10.2639 67.8193C10.936 67.1805 11.5582 66.5117 12.1305 65.813C12.7094 65.1077 13.1319 64.3724 13.3981 63.6072C13.4513 63.4541 13.4979 63.2911 13.5378 63.1181C13.5844 62.9384 13.6077 62.772 13.6077 62.619C13.6077 62.0534 13.4314 61.5842 13.0787 61.2116C12.726 60.8323 12.2635 60.6427 11.6913 60.6427C11.1257 60.6427 10.6565 60.7957 10.2839 61.1018C9.9179 61.4079 9.73491 61.8571 9.73491 62.4493C9.73491 62.7155 9.77816 62.9417 9.86467 63.128C9.95783 63.3144 10.0477 63.4707 10.1342 63.5972C10.2273 63.7236 10.2739 63.8334 10.2739 63.9266C10.2739 63.9998 10.2074 64.1262 10.0743 64.3059C9.94785 64.4789 9.80811 64.6519 9.65506 64.8249C9.50201 64.9979 9.39554 65.1177 9.33565 65.1842C9.29573 65.2241 9.25247 65.2607 9.20589 65.294C9.15931 65.3273 9.10608 65.3439 9.04619 65.3439C8.97299 65.3439 8.89314 65.3073 8.80664 65.2341C8.40073 64.8814 8.08798 64.419 7.86838 63.8467C7.64879 63.2744 7.539 62.7255 7.539 62.1998C7.539 61.3746 7.72864 60.6693 8.10794 60.0837C8.48723 59.4981 8.99628 59.049 9.6351 58.7362C10.2806 58.4235 10.9959 58.2671 11.7811 58.2671C12.553 58.2671 13.2617 58.4301 13.9071 58.7562C14.5526 59.0822 15.0683 59.5447 15.4543 60.1436C15.8402 60.7358 16.0332 61.4345 16.0332 62.2397C16.0332 62.7521 15.9201 63.2678 15.6938 63.7868C15.4742 64.3059 15.2014 64.8016 14.8753 65.274C14.5493 65.7465 14.2232 66.1724 13.8972 66.5517C13.5711 66.9243 13.295 67.2304 13.0687 67.47C12.8491 67.7029 12.7393 67.8393 12.7393 67.8792C12.7393 67.9125 12.7626 67.9324 12.8092 67.9391C12.8558 67.9457 12.889 67.9491 12.909 67.9491H15.8236C15.97 67.9491 16.0698 67.9823 16.123 68.0489C16.1829 68.1154 16.2195 68.2152 16.2328 68.3483C16.2528 68.5413 16.2594 68.7942 16.2528 69.1069C16.2528 69.413 16.2528 69.6725 16.2528 69.8855C16.2528 70.1649 16.1164 70.3047 15.8435 70.3047H8.71681Z" fill="white"/>
<path d="M14.7057 109.407C14.7922 109.407 14.8953 109.42 15.0151 109.447C15.1415 109.473 15.2047 109.547 15.2047 109.666C15.2047 109.733 15.1848 109.799 15.1448 109.866C15.1116 109.933 15.0783 109.992 15.045 110.046C14.9918 110.119 14.8753 110.285 14.6957 110.545C14.5227 110.798 14.3164 111.094 14.0768 111.433C13.8439 111.766 13.6144 112.095 13.3881 112.421C13.1685 112.741 12.9855 113.013 12.8391 113.24C12.6927 113.459 12.6195 113.579 12.6195 113.599C12.6195 113.646 12.6595 113.676 12.7393 113.689C13.7108 113.888 14.4628 114.291 14.9951 114.897C15.5275 115.502 15.7936 116.311 15.7936 117.322C15.7936 118.194 15.5807 118.939 15.1548 119.558C14.7356 120.17 14.1766 120.639 13.4779 120.965C12.7859 121.285 12.0273 121.444 11.2022 121.444C10.6565 121.444 10.0543 121.345 9.39554 121.145C8.74342 120.945 8.20775 120.663 7.78853 120.297C7.68872 120.217 7.63881 120.127 7.63881 120.027C7.63881 119.967 7.70203 119.817 7.82846 119.578C7.96154 119.332 8.10128 119.082 8.24768 118.829C8.39407 118.57 8.49056 118.403 8.53714 118.33C8.57707 118.264 8.62365 118.2 8.67688 118.141C8.73011 118.074 8.79998 118.041 8.88649 118.041C8.97965 118.041 9.10941 118.101 9.27576 118.22C9.44878 118.34 9.66504 118.463 9.92456 118.59C10.1841 118.71 10.4902 118.769 10.8428 118.769C11.1756 118.769 11.5282 118.723 11.9009 118.63C12.2735 118.537 12.5896 118.373 12.8491 118.141C13.1153 117.908 13.2484 117.585 13.2484 117.172C13.2484 116.74 13.0987 116.407 12.7992 116.174C12.4998 115.935 12.1438 115.768 11.7312 115.675C11.3253 115.582 10.9526 115.535 10.6133 115.535C10.4136 115.535 10.2173 115.549 10.0244 115.575C9.8314 115.602 9.63842 115.632 9.44545 115.665H9.4155C9.37558 115.665 9.35562 115.649 9.35562 115.615C9.35562 115.589 9.44545 115.442 9.62511 115.176C9.81143 114.91 10.0377 114.587 10.3039 114.208C10.57 113.822 10.8362 113.439 11.1024 113.06C11.3752 112.674 11.6014 112.348 11.7811 112.082C11.9674 111.809 12.0606 111.659 12.0606 111.633C12.0606 111.599 12.0406 111.579 12.0007 111.573C11.9674 111.559 11.9375 111.553 11.9109 111.553H8.67688C8.43067 111.553 8.29759 111.42 8.27762 111.154C8.27097 110.934 8.26431 110.714 8.25766 110.495C8.25766 110.269 8.25766 110.046 8.25766 109.826C8.25766 109.547 8.3974 109.407 8.67688 109.407H14.7057Z" fill="white"/>
</svg>
