<svg width="69" height="80" viewBox="0 0 69 80" fill="none" xmlns="http://www.w3.org/2000/svg">
<path d="M13.032 26.2076H55.1491V60.5285C55.1491 62.5674 53.496 64.2204 51.4596 64.2204H47.241V74.6729C47.241 77.3272 45.1239 79.4784 42.5104 79.4784C39.8903 79.4784 37.7762 77.3272 37.7762 74.6729V64.2204H30.4084V74.6729C30.4084 77.3272 28.287 79.4784 25.6737 79.4784C23.0609 79.4784 20.9397 77.3272 20.9397 74.6729V64.2204H16.7249C14.688 64.2204 13.0318 62.5674 13.0318 60.5285L13.032 26.2076ZM4.77851 25.9275C2.13845 25.9275 0 28.0992 0 30.7802V49.7457C0 52.4236 2.13845 54.599 4.77851 54.599C7.41903 54.599 9.55702 52.4236 9.55702 49.7457V30.7802C9.55702 28.0992 7.41903 25.9275 4.77851 25.9275ZM55.1492 22.7491H13.032C13.5518 16.7489 17.4441 11.5854 23.0472 8.59575L19.0428 2.71589C18.5028 1.92297 18.7065 0.841071 19.501 0.301208C20.2946 -0.238655 21.3743 -0.0333481 21.9169 0.758948L26.2814 7.17198C28.7012 6.3352 31.3279 5.85475 34.0905 5.85475C36.8564 5.85475 39.4833 6.3352 41.9029 7.17307L46.2674 0.761281C46.8034 -0.0331926 47.8865 -0.238499 48.6801 0.301364C49.4745 0.841226 49.6783 1.92313 49.1383 2.71605L45.1371 8.5959C50.7401 11.5837 54.6297 16.7472 55.1492 22.7491ZM27.5371 14.5961C27.5371 13.3094 26.4951 12.2658 25.2088 12.2658C23.9193 12.2658 22.8774 13.3094 22.8774 14.5961C22.8774 15.8823 23.9227 16.9254 25.2088 16.9254C26.495 16.9254 27.5371 15.8823 27.5371 14.5961ZM45.5989 14.5961C45.5989 13.3094 44.5534 12.2658 43.2674 12.2658C41.9779 12.2658 40.9391 13.3094 40.9391 14.5961C40.9391 15.8823 41.9779 16.9254 43.2674 16.9254C44.5535 16.9254 45.5989 15.8823 45.5989 14.5961ZM63.4058 25.9208C60.7686 25.9208 58.624 28.0958 58.624 30.7769V49.7491C58.624 52.4302 60.7686 54.6059 63.4058 54.6059C66.0465 54.6059 68.1809 52.4304 68.1809 49.7491V30.7769C68.1811 28.0958 66.0465 25.9208 63.4058 25.9208Z" fill="#39C593"/>
</svg>
