<svg width="68" height="80" viewBox="0 0 68 80" fill="none" xmlns="http://www.w3.org/2000/svg">
<path fill-rule="evenodd" clip-rule="evenodd" d="M46.0718 12.7136C48.9748 9.34905 50.9316 4.66298 50.3961 0.000488281C46.2127 0.159756 41.1517 2.67279 38.1521 6.03331C35.4585 9.01557 33.1072 13.7807 33.7393 18.3517C38.4058 18.6981 43.1689 16.082 46.0718 12.7136ZM56.5361 42.3061C56.6529 54.3585 67.5681 58.3678 67.6889 58.4195C67.6003 58.7022 65.9455 64.1323 61.9394 69.7464C58.4728 74.5961 54.8773 79.426 49.2123 79.5296C43.648 79.6291 41.8563 76.3683 35.4908 76.3683C29.1292 76.3683 27.1402 79.4256 21.8739 79.6287C16.4062 79.8238 12.239 74.3818 8.74819 69.5481C1.60556 59.6616 -3.85005 41.6096 3.47779 29.4258C7.11755 23.3777 13.62 19.5418 20.6821 19.4463C26.0491 19.3467 31.1182 22.9069 34.3996 22.9069C37.6811 22.9069 43.8413 18.6266 50.3155 19.2558C53.0252 19.3633 60.6349 20.3026 65.5188 27.155C65.1242 27.3899 56.4395 32.2325 56.5361 42.3061Z" fill="#39C593"/>
</svg>
