<svg width="100" height="50" viewBox="0 0 100 50" fill="none" xmlns="http://www.w3.org/2000/svg">
<path d="M0.459387 13.695V49.1944H8.74834V13.695H0.459387ZM36.2883 7.43488C44.787 7.43488 50.2463 14.2824 50.2463 24.9966C50.2463 35.7948 44.787 42.6423 36.2883 42.6423C27.7064 42.6423 22.287 35.7948 22.287 24.9966C22.287 14.2824 27.7031 7.43488 36.2883 7.43488ZM81.4547 0.0839139C71.0386 0.0839139 63.6218 5.88077 63.6218 14.4938C63.6218 21.3413 67.8296 25.6277 76.6644 27.6853L82.8728 29.1991C88.9148 30.5854 91.3715 32.6027 91.3715 36.0902C91.3715 40.1249 87.3302 42.9813 81.5812 42.9813C75.7057 42.9813 71.2883 40.0812 70.8322 35.6304H62.5C62.8329 44.5388 70.0832 50 81.0819 50C92.7064 50 100 44.2434 100 35.0866C100 27.9035 95.8322 23.8285 86.1684 21.5998L80.6258 20.3377C74.7503 18.9078 72.3336 17.018 72.3336 13.8259C72.3336 9.79122 75.9987 7.10258 81.4181 7.10258C86.8775 7.10258 90.6258 9.83485 91.0419 14.3293H99.2077C98.998 5.84385 92.0406 0.0872718 81.4581 0.0872718L81.4547 0.0839139ZM36.2883 0.0839139C22.2903 0.0839139 13.5386 9.70395 13.5386 24.9966C13.5386 40.4169 22.287 49.9933 36.2883 49.9933C50.2064 49.9933 58.9947 40.4135 58.9947 24.9966C58.9947 9.70395 50.2031 0.0839139 36.285 0.0839139H36.2883ZM4.58056 0C4.55726 0 4.5273 0 4.50067 0C2.01398 0 0 2.03074 0 4.53813C0 7.04551 2.01398 9.07626 4.50067 9.07626C4.53063 9.07626 4.55726 9.07626 4.58722 9.07626C4.62384 9.07626 4.66378 9.07962 4.70706 9.07962C7.19374 9.07962 9.20772 7.04887 9.20772 4.54149C9.20772 2.0341 7.19374 0.00335476 4.70706 0.00335476C4.66378 0.00335476 4.62051 0.00335612 4.57723 0.00671273H4.58389L4.58056 0Z" fill="#39C593"/>
</svg>
