<svg width="67" height="81" viewBox="0 0 67 81" fill="none" xmlns="http://www.w3.org/2000/svg">
<path d="M34.9219 0C34.4009 0 33.8632 0.0268894 33.3086 0.0705847C19.1042 1.18986 22.8721 16.2278 22.6536 21.2393C22.3982 24.9097 21.6453 27.8037 19.1244 31.39C16.1498 34.9226 11.9752 40.6333 9.99544 46.5859C9.06103 49.3824 8.61736 52.2461 9.03078 54.9519C8.87747 55.0759 8.75157 55.2304 8.66105 55.4056C7.78715 56.3064 7.14852 57.4224 6.43259 58.2257C5.76372 58.8946 4.80242 59.1231 3.75373 59.5701C2.70169 60.0273 1.54208 60.4743 0.849678 61.8557C0.547172 62.491 0.392557 63.18 0.406002 63.8792C0.406002 64.548 0.496754 65.2236 0.590867 65.6808C0.785815 67.0219 0.980763 68.1277 0.725314 68.9411C-0.111619 71.2267 -0.215815 72.7897 0.369029 73.9291C0.953874 75.0517 2.16726 75.5089 3.52854 75.9492C6.25109 76.6214 9.94838 76.4029 12.8524 77.9659C15.9649 79.5322 19.1244 80.2179 21.6453 79.5456C23.4133 79.1557 24.9056 77.986 25.7056 76.3659C27.6786 76.3559 29.8398 75.4618 33.3018 75.2433C35.6513 75.0484 38.5923 76.1408 41.9636 75.9156C42.0476 76.366 42.1753 76.5811 42.3468 77.0348L42.3568 77.0449C43.6711 79.6599 46.0978 80.8498 48.6893 80.6447C51.2808 80.4431 54.0403 78.8431 56.2755 76.255C58.3964 73.6837 61.9323 72.6115 64.2684 71.2032C65.4381 70.5343 66.3825 69.6268 66.4498 68.3361C66.5271 66.9916 65.7775 65.6102 64.0499 63.7111V63.3851L64.0398 63.375C63.4684 62.7028 63.1995 61.5768 62.9037 60.2626C62.618 58.9147 62.292 57.6207 61.25 56.7468H61.2399C61.0416 56.5653 60.8265 56.5216 60.608 56.293C60.4201 56.1618 60.1985 56.0871 59.9694 56.0779C61.4181 51.7823 60.8568 47.5069 59.3879 43.6617C57.5964 38.9224 54.4638 34.7949 52.0774 31.9547C49.4019 28.5767 46.7802 25.3769 46.8339 20.6343C46.9213 13.401 47.6272 0.0201671 34.9219 0ZM36.7 11.4448H36.7437C37.4596 11.4448 38.0747 11.6532 38.7066 12.1103C39.3452 12.5641 39.8158 13.2262 40.1788 13.9018C40.5317 14.7724 40.7099 15.4446 40.7368 16.3353C40.7368 16.2681 40.7569 16.2009 40.7569 16.1337V16.4866C40.7495 16.4637 40.745 16.44 40.7435 16.416L40.73 16.3353C40.7233 17.1522 40.5518 17.9593 40.2259 18.7083C40.0689 19.1297 39.825 19.5134 39.5099 19.8343C39.4147 19.7805 39.3159 19.7334 39.2141 19.6931C38.8646 19.5419 38.5486 19.478 38.2596 19.2461C38.02 19.1507 37.7726 19.0765 37.5201 19.0243C37.6882 18.8226 38.0108 18.5772 38.1352 18.3588C38.3134 17.9285 38.4108 17.4714 38.431 17.0076V16.9403C38.4386 16.4838 38.3693 16.0293 38.226 15.5959C38.0747 15.1455 37.8865 14.9236 37.6109 14.4766C37.3285 14.2548 37.0496 14.0329 36.7134 14.0329H36.6597C36.3471 14.0329 36.0681 14.1338 35.779 14.4766C35.4598 14.7879 35.223 15.1737 35.09 15.5992C34.9115 16.0263 34.8091 16.4813 34.7875 16.9437V17.0076C34.7942 17.3067 34.8144 17.6092 34.8547 17.905C34.206 17.6798 33.3825 17.4512 32.8145 17.226C32.7805 17.0034 32.7603 16.7789 32.754 16.5538V16.4866C32.7276 15.5993 32.8998 14.7173 33.2581 13.9052C33.5328 13.167 34.0401 12.5383 34.7035 12.1137C35.278 11.6782 35.979 11.4455 36.7 11.4448ZM26.7442 11.6431H26.8652C27.3425 11.6431 27.7727 11.8045 28.2063 12.0969C28.697 12.5305 29.0936 13.0649 29.3625 13.6598C29.665 14.3287 29.8331 15.0043 29.8768 15.9017V15.9152C29.9003 16.3656 29.897 16.5874 29.8701 16.8092V17.0781C29.7692 17.1017 29.6819 17.1386 29.5911 17.1588C29.0802 17.3437 28.6701 17.6126 28.2702 17.831C28.3105 17.5285 28.3139 17.226 28.2802 16.9336V16.8832C28.2399 16.4362 28.1458 16.211 28.0046 15.7639C27.8998 15.4214 27.7075 15.112 27.4467 14.8665C27.3638 14.7912 27.2667 14.7333 27.161 14.6963C27.0553 14.6594 26.9433 14.6441 26.8316 14.6514H26.761C26.5223 14.6715 26.324 14.7858 26.1358 15.095C25.9214 15.3553 25.782 15.669 25.7325 16.0026C25.6416 16.3649 25.6154 16.7404 25.6552 17.1118V17.1622C25.6955 17.6159 25.7795 17.8344 25.9241 18.2848C26.0787 18.7352 26.2535 18.957 26.482 19.1856C26.5156 19.2159 26.5492 19.2461 26.5963 19.2663C26.361 19.4579 26.203 19.5016 26.0047 19.7234C25.879 19.8346 25.7277 19.9131 25.5644 19.9519C25.215 19.5312 24.9056 19.0789 24.6401 18.6008C24.3223 17.8944 24.1453 17.1329 24.1191 16.3589C24.0634 15.6001 24.1547 14.8377 24.388 14.1136C24.5731 13.4532 24.8975 12.84 25.3392 12.3154C25.7694 11.8683 26.2131 11.6431 26.7442 11.6431ZM31.349 17.3773C32.4649 17.3773 33.8127 17.5958 35.4362 18.7184C36.421 19.3906 37.1941 19.6226 38.9721 20.2914H38.9822C39.8393 20.7485 40.3435 21.1855 40.5889 21.6325V21.1922C40.7095 21.4366 40.7767 21.7039 40.7859 21.9763C40.7952 22.2487 40.7464 22.5199 40.6427 22.772C40.2292 23.8139 38.9083 24.9332 37.0697 25.6021V25.6088C36.1689 26.0626 35.3858 26.7281 34.4648 27.1718C33.5371 27.6255 32.4884 28.1532 31.0633 28.0692C30.5513 28.0957 30.0393 28.0191 29.5575 27.844C29.1852 27.6414 28.8239 27.4193 28.4752 27.1785C27.8198 26.7247 27.2551 26.0626 26.4181 25.6155V25.5987H26.4013C25.0569 24.7719 24.3309 23.8778 24.0956 23.2123C23.8603 22.3115 24.0788 21.6325 24.7443 21.1956C25.4972 20.7418 26.0215 20.2847 26.3677 20.0662C26.7173 19.8175 26.8484 19.7234 26.9593 19.6259H26.966V19.6158C27.5341 18.9369 28.4315 18.0361 29.786 17.5958C30.2533 17.4748 30.7742 17.3773 31.3524 17.3773H31.349ZM40.7603 24.5769C41.9636 29.3397 44.7803 36.257 46.5919 39.6115C47.5532 41.4063 49.4657 45.1877 50.2959 49.7757C50.8203 49.7589 51.4051 49.8362 52.0202 49.9908C54.1916 44.3743 50.185 38.3376 48.3599 36.6604C47.6205 35.9881 47.5801 35.5344 47.9465 35.5344C49.9296 37.3292 52.5345 40.8181 53.479 44.8011C53.9159 46.5994 54.0168 48.5119 53.5496 50.4143C53.7748 50.5084 54.0033 50.616 54.2386 50.6395C57.7073 52.4344 58.988 53.7923 58.3729 55.8056V55.6611C58.1712 55.651 57.9695 55.6611 57.7678 55.6611H57.7141C58.2216 54.0914 57.1023 52.8881 54.1344 51.547C51.0589 50.2025 48.6019 50.4177 48.1851 53.11C48.1582 53.2545 48.1414 53.3318 48.1246 53.5637C47.8961 53.641 47.6574 53.7419 47.4221 53.7788C45.9768 54.6796 45.197 56.0275 44.7567 57.7686C44.3198 59.5601 44.1853 61.6541 44.0677 64.0506V64.0607C44.0005 65.1833 43.4963 66.8773 42.9955 68.5983C37.9537 72.2015 30.9625 73.7678 25.0199 69.7209C24.647 69.0691 24.193 68.4671 23.6687 67.9294C23.4182 67.5123 23.1066 67.135 22.7444 66.8101C23.3561 66.8101 23.8805 66.7093 24.3073 66.5849C24.7907 66.3607 25.1688 65.9585 25.3627 65.4623C25.7257 64.5649 25.3627 63.1196 24.2031 61.5532C23.0435 59.9836 21.0739 58.2089 18.1933 56.4409C16.0758 55.0964 14.8792 53.5167 14.328 51.7487C13.7734 49.9538 13.8473 48.1018 14.2776 46.2196C15.1011 42.6231 17.2119 39.1275 18.5597 36.9326C18.9194 36.7141 18.6841 37.3864 17.1884 40.2064C15.8573 42.7306 13.3566 48.5993 16.7783 53.1604C16.9075 49.8325 17.6446 46.5563 18.953 43.4936C20.8487 39.198 24.8115 31.7161 25.1241 25.787C25.2854 25.908 25.8535 26.2407 26.0955 26.4659C26.8282 26.9129 27.3727 27.5852 28.0786 28.0289C28.7844 28.7045 29.6819 29.1549 31.023 29.1549C31.154 29.1649 31.2751 29.175 31.3927 29.175C32.7775 29.175 33.8464 28.7246 34.7438 28.2742C35.7185 27.8238 36.4916 27.1516 37.2311 26.9298H37.2479C38.8175 26.476 40.0544 25.5786 40.7569 24.5769H40.7603ZM48.1045 54.6864C48.2288 56.7031 49.2573 58.871 51.069 59.3147C53.0454 59.7651 55.8889 58.1954 57.0889 56.7434L57.7981 56.7098C58.8569 56.6863 59.7375 56.7434 60.645 57.6106L60.6551 57.6207C61.3542 58.2895 61.6803 59.4021 61.9693 60.5651C62.255 61.9095 62.4869 63.1868 63.344 64.1481C64.9776 65.9194 65.512 67.1933 65.4817 67.9798L65.4918 67.9563V68.0168L65.4817 67.9798C65.4313 68.8604 64.8599 69.3075 63.8079 69.9764C61.6903 71.3242 57.9393 72.3695 55.5495 75.2534C53.4723 77.7306 50.9447 79.0851 48.7061 79.2566C46.4743 79.4347 44.5483 78.5843 43.4156 76.2382L43.3988 76.2281C42.693 74.8837 42.9955 72.7829 43.587 70.5478C44.1786 68.3025 45.0256 66.0303 45.1433 64.1716C45.2676 61.7717 45.3987 59.6844 45.7987 58.0744C46.202 56.5115 46.8339 55.3956 47.9532 54.767L48.1045 54.6931V54.6864ZM11.7567 54.8511H11.7903C11.9685 54.8511 12.1432 54.8679 12.318 54.8981C13.5818 55.083 14.691 56.0174 15.7565 57.4257L18.8152 63.0187L18.8253 63.0288C19.642 64.8203 21.3596 66.6051 22.8217 68.531C24.2804 70.541 25.4098 72.3325 25.272 73.8081V73.8283C25.0804 76.329 23.6586 77.6869 21.4907 78.1776C19.3227 78.6314 16.3817 78.1843 13.4406 76.618C10.187 74.8164 6.32167 75.0417 3.83776 74.5946C2.59749 74.3728 1.78745 73.9224 1.40763 73.2501C1.0379 72.5779 1.02782 71.2267 1.82106 69.1159V69.1024L1.82778 69.0924C2.22104 67.9697 1.92862 66.5648 1.73703 65.3346C1.55216 63.9867 1.45805 62.9481 1.88156 62.1751C2.41935 61.0524 3.21259 60.8306 4.20077 60.3836C5.18896 59.9298 6.35192 59.7046 7.27625 58.8038H7.28297V58.7971C8.14343 57.8963 8.77869 56.777 9.52824 55.9804C10.1669 55.3048 10.8055 54.8511 11.7567 54.8511ZM35.8194 24.3517C34.3572 25.0273 32.643 26.15 30.8179 26.15C28.9962 26.15 27.5576 25.2525 26.5156 24.5837C25.998 24.1333 25.5745 23.6829 25.2619 23.4577C24.7107 23.0073 24.7779 22.3384 25.0132 22.3384C25.3795 22.3922 25.4468 22.7888 25.6821 23.0106C26.0047 23.2325 26.4047 23.6829 26.8921 24.1299C27.8735 24.8021 29.1777 25.6996 30.8146 25.6996C32.4447 25.6996 34.3539 24.8021 35.5135 24.1333C36.1689 23.6795 37.0092 23.0106 37.6915 22.5636C38.2159 22.1065 38.1924 21.6662 38.6293 21.6662C39.0595 21.7199 38.7436 22.1165 38.1352 22.7821C37.3897 23.3459 36.6156 23.8709 35.816 24.3551L35.8194 24.3517ZM32.1826 19.031V18.957C32.1624 18.8898 32.2263 18.8159 32.28 18.789C32.5288 18.6445 32.8851 18.6982 33.1539 18.8024C33.3657 18.8024 33.6917 19.0276 33.6581 19.2562C33.638 19.4209 33.3724 19.478 33.2044 19.478C33.0195 19.478 32.8951 19.3335 32.7304 19.2495C32.5557 19.189 32.2397 19.2226 32.1826 19.031ZM30.3306 19.031C30.2633 19.2259 29.9507 19.1957 29.7726 19.2528C29.6146 19.3369 29.4835 19.4814 29.302 19.4814C29.134 19.4814 28.8651 19.4142 28.8449 19.2528C28.8113 19.031 29.1407 18.8058 29.3491 18.8058C29.618 18.7016 29.9676 18.6478 30.2196 18.789C30.2835 18.8192 30.3406 18.8898 30.3205 18.957V19.0243H30.3306V19.031Z" fill="#39C593"/>
</svg>
