<svg width="50" height="39" viewBox="0 0 50 39" fill="none" xmlns="http://www.w3.org/2000/svg">
<g filter="url(#filter0_ddii_2_48152)">
<path d="M8.88021 26.7732C8.42112 26.7732 8.07343 26.3586 8.15348 25.9065L9.1504 20.2769C9.48875 18.3595 10.1767 16.3407 11.2143 14.2204C12.2745 12.1 13.6054 10.0699 15.2069 8.13002C16.7056 6.33993 18.3579 4.78993 20.1639 3.48003C20.4319 3.28572 20.7968 3.30218 21.0517 3.51328L24.3857 6.27426C24.6986 6.53337 24.7428 6.99633 24.4891 7.31361C23.023 9.14712 21.677 11.0546 20.4514 13.0361C19.0979 15.2241 18.2182 17.6039 17.8122 20.1754L16.7684 26.162C16.7068 26.5153 16.4 26.7732 16.0413 26.7732H8.88021ZM26.1362 26.7732C25.6771 26.7732 25.3294 26.3586 25.4094 25.9065L26.4064 20.2769C26.7447 18.3595 27.4327 16.3407 28.4703 14.2204C29.5305 12.1 30.8613 10.0699 32.4629 8.13002C33.9615 6.33993 35.6139 4.78993 37.4199 3.48003C37.6878 3.28572 38.0527 3.30218 38.3076 3.51328L41.6416 6.27426C41.9545 6.53337 41.9988 6.99633 41.7451 7.31361C40.2789 9.14712 38.933 11.0546 37.7073 13.0361C36.3539 15.2241 35.4742 17.6039 35.0682 20.1754L34.0243 26.162C33.9627 26.5153 33.656 26.7732 33.2973 26.7732H26.1362Z" fill="white"/>
<path d="M8.88021 26.7732C8.42112 26.7732 8.07343 26.3586 8.15348 25.9065L9.1504 20.2769C9.48875 18.3595 10.1767 16.3407 11.2143 14.2204C12.2745 12.1 13.6054 10.0699 15.2069 8.13002C16.7056 6.33993 18.3579 4.78993 20.1639 3.48003C20.4319 3.28572 20.7968 3.30218 21.0517 3.51328L24.3857 6.27426C24.6986 6.53337 24.7428 6.99633 24.4891 7.31361C23.023 9.14712 21.677 11.0546 20.4514 13.0361C19.0979 15.2241 18.2182 17.6039 17.8122 20.1754L16.7684 26.162C16.7068 26.5153 16.4 26.7732 16.0413 26.7732H8.88021ZM26.1362 26.7732C25.6771 26.7732 25.3294 26.3586 25.4094 25.9065L26.4064 20.2769C26.7447 18.3595 27.4327 16.3407 28.4703 14.2204C29.5305 12.1 30.8613 10.0699 32.4629 8.13002C33.9615 6.33993 35.6139 4.78993 37.4199 3.48003C37.6878 3.28572 38.0527 3.30218 38.3076 3.51328L41.6416 6.27426C41.9545 6.53337 41.9988 6.99633 41.7451 7.31361C40.2789 9.14712 38.933 11.0546 37.7073 13.0361C36.3539 15.2241 35.4742 17.6039 35.0682 20.1754L34.0243 26.162C33.9627 26.5153 33.656 26.7732 33.2973 26.7732H26.1362Z" fill="white"/>
</g>
<defs>
<filter id="filter0_ddii_2_48152" x="0.761663" y="0.391628" width="48.5281" height="38.1903" filterUnits="userSpaceOnUse" color-interpolation-filters="sRGB">
<feFlood flood-opacity="0" result="BackgroundImageFix"/>
<feColorMatrix in="SourceAlpha" type="matrix" values="0 0 0 0 0 0 0 0 0 0 0 0 0 0 0 0 0 0 127 0" result="hardAlpha"/>
<feOffset dy="1.47606"/>
<feGaussianBlur stdDeviation="0.73803"/>
<feComposite in2="hardAlpha" operator="out"/>
<feColorMatrix type="matrix" values="0 0 0 0 0 0 0 0 0 0 0 0 0 0 0 0 0 0 0.1 0"/>
<feBlend mode="normal" in2="BackgroundImageFix" result="effect1_dropShadow_2_48152"/>
<feColorMatrix in="SourceAlpha" type="matrix" values="0 0 0 0 0 0 0 0 0 0 0 0 0 0 0 0 0 0 127 0" result="hardAlpha"/>
<feMorphology radius="4.42818" operator="erode" in="SourceAlpha" result="effect2_dropShadow_2_48152"/>
<feOffset dy="4.42818"/>
<feGaussianBlur stdDeviation="5.90424"/>
<feComposite in2="hardAlpha" operator="out"/>
<feColorMatrix type="matrix" values="0 0 0 0 0 0 0 0 0 0 0 0 0 0 0 0 0 0 0.1 0"/>
<feBlend mode="normal" in2="effect1_dropShadow_2_48152" result="effect2_dropShadow_2_48152"/>
<feBlend mode="normal" in="SourceGraphic" in2="effect2_dropShadow_2_48152" result="shape"/>
<feColorMatrix in="SourceAlpha" type="matrix" values="0 0 0 0 0 0 0 0 0 0 0 0 0 0 0 0 0 0 127 0" result="hardAlpha"/>
<feOffset dy="2.21409"/>
<feGaussianBlur stdDeviation="2.21409"/>
<feComposite in2="hardAlpha" operator="arithmetic" k2="-1" k3="1"/>
<feColorMatrix type="matrix" values="0 0 0 0 1 0 0 0 0 1 0 0 0 0 1 0 0 0 0.04 0"/>
<feBlend mode="normal" in2="shape" result="effect3_innerShadow_2_48152"/>
<feColorMatrix in="SourceAlpha" type="matrix" values="0 0 0 0 0 0 0 0 0 0 0 0 0 0 0 0 0 0 127 0" result="hardAlpha"/>
<feOffset dy="0.369015"/>
<feGaussianBlur stdDeviation="0.184508"/>
<feComposite in2="hardAlpha" operator="arithmetic" k2="-1" k3="1"/>
<feColorMatrix type="matrix" values="0 0 0 0 1 0 0 0 0 1 0 0 0 0 1 0 0 0 0.2 0"/>
<feBlend mode="normal" in2="effect3_innerShadow_2_48152" result="effect4_innerShadow_2_48152"/>
</filter>
</defs>
</svg>
