<svg width="77" height="77" viewBox="0 0 77 77" fill="none" xmlns="http://www.w3.org/2000/svg">
<path fill-rule="evenodd" clip-rule="evenodd" d="M34.9973 39.9266C35.0165 47.5755 35.0395 60.5714 35.0587 70.6718C48.888 72.542 62.7174 74.4699 76.5238 76.5312C76.5238 64.4727 76.5391 52.4669 76.5238 40.9935C62.6829 40.9935 48.8458 39.9266 34.9973 39.9266ZM0 39.9303V65.8998C10.4305 67.3072 20.861 68.6523 31.2724 70.1897C31.2916 60.1429 31.2647 50.093 31.2647 40.0462C20.8419 40.0653 10.4229 39.8959 0 39.9303ZM0 10.8798V36.7764C10.4305 36.8032 20.861 36.6453 31.2916 36.6568C31.2839 26.6329 31.2839 16.6212 31.2724 6.59729C20.8342 7.90142 10.396 9.28113 0 10.8798ZM76.5314 36.2439C62.7097 36.2974 48.888 36.5082 35.0587 36.5503C35.051 26.3619 35.051 16.1857 35.0587 6.00499C48.8612 3.8977 62.6944 1.91586 76.5238 -0.000183105C76.5314 12.0851 76.5238 24.1586 76.5314 36.2439Z" fill="#39C593"/>
</svg>
